# xmcd
#
# Track frame offsets:
#	150
#	12836
#	24525
#	43013
#	54206
#	70248
#	86071
#	99943
#	112234
#	126108
#	142534
#
# Disc length: 2170 seconds
#
# Revision: 0
# Processed by: cddbd v1.5.1PL2 Copyright (c) Steve Scherf et al.
# Submitted via: EasyCDDAExtractor 4.6.9.1
#
DISCID=8708780b
DTITLE=Merle Haggard - Back To The Barrooms
DYEAR=1980
DGENRE=Country
TTITLE0=Misery And Gin
TTITLE1=Back To The Barrooms Again
TTITLE2=Make-Up And Faded Blue Jeans
TTITLE3=Ever-Changing Woman
TTITLE4=Easy Come, Easy Go
TTITLE5=I Don't Want To Sober Up Tonight
TTITLE6=Can't Break The Habit
TTITLE7=Our Paths May Never Cross
TTITLE8=I Don't Have Any More Love Songs
TTITLE9=Leonard
TTITLE10=I Think I'll Just Stay Here And Drink
EXTD=
EXTT0=
EXTT1=
EXTT2=
EXTT3=
EXTT4=
EXTT5=
EXTT6=
EXTT7=
EXTT8=
EXTT9=
EXTT10=
PLAYORDER=
